{"title":"[ShepardTDS] Sword Art Online II Dual Audio [720p 8-bit x265 HEV","uid":14010229,"size":4827635102,"categoryP":"video","categoryS":"tv_shows","magnet":"?xt=urn:btih:b37a3cb5a30115be21f33173239d858c756fb1eb&amp;dn=%5BShepardTDS%5D+Sword+Art+Online+II+Dual+Audio+%5B720p+8-bit+x265+HEV&amp;tr=udp%3A%2F%2Ftracker.leechers-paradise.org%3A6969&amp;tr=udp%3A%2F%2Fzer0day.ch%3A1337&amp;tr=udp%3A%2F%2Fopen.demonii.com%3A1337&amp;tr=udp%3A%2F%2Ftracker.coppersurfer.tk%3A6969&amp;tr=udp%3A%2F%2Fexodus.desync.com%3A6969","seeders":2,"leechers":3,"uploader":"ShepardTDS","files":42,"time":1458819541,"description":"http://extraimago.com/images/2016/03/24/TSA_2302824_2015-07-10--00-15-40.jpg\r\n\r\nConstant Quality encoding.\r\nVariable Bit rates\r\nOP and ED included\r\nBlu-Ray Source\r\nOffline Episodes included\r\n \nhttp://extraimago.com/images/2016/03/24/sample1.jpg\r\n \nhttp://extraimago.com/images/2016/03/24/sample2.jpg\r\n\r\nGeneral\r\n\r\nFormat : Matroska\r\nFile size : 128 MiB-204 MiB\r\nDuration : 23mn 42s\r\nOverall bit rate : 755 Kbps-1,202 Kbps\r\nEncoded date : UTC 2016-03-21 09:00:46\r\nWriting application : mkvmerge v8.5.2 ('Crosses') 32bit\r\nWriting library : libebml v1.3.3 + libmatroska v1.4.4\r\n\r\nVideo\r\nID : 1\r\nFormat : V_MPEGH/ISO/HEVC\r\nCodec ID : V_MPEGH/ISO/HEVC\r\nDuration : 23mn 42s\r\nBit rate : 356 Kbps-794 Kbps\r\nWidth : 1 280 pixels\r\nHeight : 720 pixels\r\nDisplay aspect ratio : 16:9\r\nFrame rate : 23.976 fps\r\nBits/(Pixel*Frame) : 0.016\r\nStream size : 60.3 MiB (47%)\r\n\r\nAudio #1\r\nID : 2\r\nFormat : AC-3\r\nFormat/Info : Audio Coding 3\r\nMode extension : CM (complete main)\r\nCodec ID : A_AC3\r\nDuration : 23mn 42s\r\nBit rate mode : Constant\r\nBit rate : 192 Kbps\r\nChannel(s) : 2 channels\r\nChannel positions : Front: L R\r\nSampling rate : 48.0 KHz\r\nBit depth : 16 bits\r\nCompression mode : Lossy\r\nStream size : 32.5 MiB (25%)\r\nLanguage : English\r\n\r\nAudio #2\r\nID : 3\r\nFormat : AC-3\r\nFormat/Info : Audio Coding 3\r\nMode extension : CM (complete main)\r\nCodec ID : A_AC3\r\nDuration : 23mn 42s\r\nBit rate mode : Constant\r\nBit rate : 192 Kbps\r\nChannel(s) : 2 channels\r\nChannel positions : Front: L R\r\nSampling rate : 48.0 KHz\r\nBit depth : 16 bits\r\nCompression mode : Lossy\r\nStream size : 32.5 MiB (25%)\r\nLanguage : Japanese\r\n\r\nText #1\r\nID : 4\r\nFormat : ASS\r\nCodec ID : S_TEXT/ASS\r\nCodec ID/Info : Advanced Sub Station Alpha\r\nCompression mode : Lossless\r\nTitle : English Signs &amp; Songs\r\nLanguage : English\r\n\r\nText #2\r\nID : 5\r\nFormat : ASS\r\nCodec ID : S_TEXT/ASS\r\nCodec ID/Info : Advanced Sub Station Alpha\r\nCompression mode : Lossless\r\nTitle : English Subtitles\r\nLanguage : English\r\n\r\nMenu\r\n00:00:00.000 : en:Chapter 01\r\n00:03:45.016 : en:Chapter 02\r\n00:07:22.942 : en:Chapter 03\r\n00:22:04.948 : en:Chapter 04\r\n00:23:34.914 : en:Chapter 05","torrent":{"xt":"urn:btih:b37a3cb5a30115be21f33173239d858c756fb1eb","amp;dn":"%5BShepardTDS%5D+Sword+Art+Online+II+Dual+Audio+%5B720p+8-bit+x265+HEV","amp;tr":["udp%3A%2F%2Ftracker.leechers-paradise.org%3A6969","udp%3A%2F%2Fzer0day.ch%3A1337","udp%3A%2F%2Fopen.demonii.com%3A1337","udp%3A%2F%2Ftracker.coppersurfer.tk%3A6969","udp%3A%2F%2Fexodus.desync.com%3A6969"],"infoHash":"b37a3cb5a30115be21f33173239d858c756fb1eb","infoHashBuffer":{"type":"Buffer","data":[179,122,60,181,163,1,21,190,33,243,49,115,35,157,133,140,117,111,177,235]},"announce":[],"urlList":[]}}